<?xml version="1.0" encoding="UTF-8"?>
<svg version="1.1" xmlns="http://www.w3.org/2000/svg" width="512" height="512">
<path d="M0 0 C168.96 0 337.92 0 512 0 C512 168.96 512 337.92 512 512 C343.04 512 174.08 512 0 512 C0 343.04 0 174.08 0 0 Z " fill="#FDFDFD" transform="translate(0,0)"/>
<path d="M0 0 C1.16402344 0.23332031 2.32804688 0.46664062 3.52734375 0.70703125 C19.8134765 4.15137859 35.75073714 10.88016426 49 21 C49.81984375 21.60070312 50.6396875 22.20140625 51.484375 22.8203125 C56.6362188 26.74162036 61.32059538 31.097881 65.9375 35.625 C66.4936499 36.16342529 67.0497998 36.70185059 67.62280273 37.2565918 C72.13124084 41.77332637 75.42661832 46.23717297 75.4375 52.875 C75.23545716 58.71667347 73.58507066 63.34898366 69.46875 67.5703125 C65.06969672 71.34401016 62.46414969 72.18856296 56.75 72.3125 C55.63109375 72.34988281 54.5121875 72.38726562 53.359375 72.42578125 C46.49501978 71.55576413 42.48688561 66.60935801 38 61.8125 C22.600121 45.92565064 0.33084783 36.10071258 -21.82983398 34.83886719 C-41.12884116 34.4802284 -41.12884116 34.4802284 -60 38 C-60.79712402 38.23106445 -61.59424805 38.46212891 -62.41552734 38.70019531 C-98.36776544 49.32351042 -124.77457025 71.3945059 -143 104 C-143.68027999 105.32643935 -144.35481394 106.65614094 -145 108 C-145.33 108 -145.66 108 -146 108 C-146.74815495 83.6537909 -132.17374117 56.29022952 -115.9375 38.9375 C-113.66139253 36.58637958 -111.34278163 34.28447872 -109 32 C-108.13503906 31.13761719 -107.27007812 30.27523437 -106.37890625 29.38671875 C-79.2133763 3.55939224 -36.58236301 -8.8021541 0 0 Z " fill="#020202" transform="translate(287,133)"/>
<path d="M0 0 C0.99 0.495 0.99 0.495 2 1 C1.39414063 1.46148437 0.78828125 1.92296875 0.1640625 2.3984375 C-19.41187421 17.63755131 -33.57597605 37.69729547 -36.77587891 62.86376953 C-40.32243664 96.66810522 -30.33395145 134.48491366 -9.2578125 161.2890625 C-5.62781924 165.64756652 -1.88564485 169.86833667 2 174 C2.53753906 174.60199219 3.07507813 175.20398438 3.62890625 175.82421875 C12.85262299 185.74144803 25.21585672 192.58856642 37 199 C37 199.33 37 199.66 37 200 C9.43876551 197.21138787 -15.60342451 186.94372044 -36 168 C-36.52899902 167.50951172 -37.05799805 167.01902344 -37.60302734 166.51367188 C-58.01284434 147.35878704 -73.06810463 120.1779807 -75.23828125 91.89453125 C-75.75101643 70.60252815 -61.56347012 47.41539533 -47.23046875 32.29296875 C-46.49441406 31.53628906 -45.75835937 30.77960938 -45 30 C-44.31550781 29.25363281 -43.63101563 28.50726563 -42.92578125 27.73828125 C-31.28095114 15.40466267 -15.80242256 6.03012689 0 0 Z " fill="#030303" transform="translate(216,181)"/>
<path d="M0 0 C5.06134707 2.84280594 8.66170268 6.68415948 10.68359375 12.15625 C11.89997173 18.99588354 10.9724777 23.41725485 7.17285156 29.13964844 C4.78416569 32.37416406 2.11154588 35.21707481 -0.75390625 38.03125 C-1.66861694 38.93351318 -1.66861694 38.93351318 -2.60180664 39.85400391 C-19.01601973 55.67620135 -40.00053681 66.57863575 -62.31640625 71.15625 C-63.50621094 71.4553125 -64.69601562 71.754375 -65.921875 72.0625 C-81.69496007 75.22660934 -95.5057935 67.59397009 -108.57226562 59.22387695 C-126.67215763 47.02302147 -140.0028971 31.20556129 -150.94140625 12.46875 C-151.29654297 11.86844971 -151.65167969 11.26814941 -152.01757812 10.6496582 C-152.84948203 9.18728756 -153.592084 7.67478524 -154.31640625 6.15625 C-153.98640625 5.49625 -153.65640625 4.83625 -153.31640625 4.15625 C-152.79433594 4.7853125 -152.27226562 5.414375 -151.734375 6.0625 C-137.65028603 22.44049488 -117.78959481 32.67592448 -96.31640625 35.15625 C-74.56382908 36.64389217 -53.05703687 31.77060451 -35.62890625 18.03125 C-34.17544412 16.75757152 -32.73677016 15.4667367 -31.31640625 14.15625 C-29.87947379 12.92641991 -28.44199488 11.69722793 -27.00390625 10.46875 C-24.78036662 8.50864177 -22.70470866 6.53032689 -20.62890625 4.40625 C-14.71443402 -1.34837163 -7.9463289 -2.89444695 0 0 Z " fill="#020202" transform="translate(351.31640625,307.84375)"/>
<path d="M0 0 C1.98 0.99 3.96 1.98 6 3 C6 3.33 6 3.66 6 4 C3.03 3.67 0.06 3.34 -3 3 C-2.01 2.67 -1.02 2.34 0 2 C0 1.34 0 0.68 0 0 Z " fill="#3A3938" transform="translate(247,377)"/>
</svg>
